HIERARCHY
ROOT root
{
	OFFSET	0	13.1	24.9
	CHANNELS 6  Xposition Yposition Zposition Xrotation Yrotation Zrotation
	JOINT spine_1
	{
		OFFSET	0	9.99999	0
		CHANNELS 3  Xrotation Yrotation Zrotation
		JOINT spine_2
		{
			OFFSET	0	112	-10
			CHANNELS 3  Xrotation Yrotation Zrotation
			JOINT spine_3
			{
				OFFSET	0	206.5	19.3
				CHANNELS 3  Xrotation Yrotation Zrotation
				JOINT spine_4
				{
					OFFSET	0	110.4	14.6
					CHANNELS 3  Xrotation Yrotation Zrotation
					JOINT neck_1
					{
						OFFSET	0	71.8	-50.3
						CHANNELS 3  Xrotation Yrotation Zrotation
						JOINT neck_2
						{
							OFFSET	0	86.2	-25.8
							CHANNELS 3  Xrotation Yrotation Zrotation
							JOINT head_ee
							{
								OFFSET	0	179.8	-8.7
								CHANNELS 3  Xrotation Yrotation Zrotation
								End Site
								{
									OFFSET	1	0	0
								}
							}
						}
					}
					JOINT left_clavicle
					{
						OFFSET	-43.2	22.4	-70.8
						CHANNELS 3  Xrotation Yrotation Zrotation
						JOINT left_shoulder
						{
							OFFSET	-93.9	-5.79999	48.7
							CHANNELS 3  Xrotation Yrotation Zrotation
							JOINT left_elbow
							{
								OFFSET	-291.4	-30.8	15.2
								CHANNELS 3  Xrotation Yrotation Zrotation
								JOINT left_lowarm_twist
								{
									OFFSET	-110.7	-3.89999	13.6
									CHANNELS 3  Xrotation Yrotation Zrotation
									JOINT left_hand
									{
										OFFSET	-110.7	-3.89999	13.6
										CHANNELS 3  Xrotation Yrotation Zrotation
										JOINT left_ee
										{
											OFFSET	-80.8	-5.10001	12.1
											CHANNELS 3  Xrotation Yrotation Zrotation
											End Site
											{
												OFFSET	1	0	0
											}
										}
									}
								}
							}
						}
					}
					JOINT right_clavicle
					{
						OFFSET	43.2	22.4	-70.8
						CHANNELS 3  Xrotation Yrotation Zrotation
						JOINT right_shoulder
						{
							OFFSET	93.9	-5.79999	48.7
							CHANNELS 3  Xrotation Yrotation Zrotation
							JOINT right_elbow
							{
								OFFSET	291.4	-30.8	15.2
								CHANNELS 3  Xrotation Yrotation Zrotation
								JOINT right_lowarm_twist
								{
									OFFSET	110.7	-3.89999	13.6
									CHANNELS 3  Xrotation Yrotation Zrotation
									JOINT right_hand
									{
										OFFSET	110.7	-3.89999	13.6
										CHANNELS 3  Xrotation Yrotation Zrotation
										JOINT right_ee
										{
											OFFSET	80.8	-5.10001	12.1
											CHANNELS 3  Xrotation Yrotation Zrotation
											End Site
											{
												OFFSET	1	0	0
											}
										}
									}
								}
							}
						}
					}
				}
			}
		}
	}
	JOINT left_hip
	{
		OFFSET	-82.8	-127.5	0.300001
		CHANNELS 3  Xrotation Yrotation Zrotation
		JOINT left_knee
		{
			OFFSET	-28.2	-396.7	2.2
			CHANNELS 3  Xrotation Yrotation Zrotation
			JOINT left_ankle
			{
				OFFSET	-11.7	-411.3	35.4
				CHANNELS 3  Xrotation Yrotation Zrotation
				JOINT left_toes
				{
					OFFSET	0	-60	-88.6
					CHANNELS 3  Xrotation Yrotation Zrotation
					JOINT left_foot_ee
					{
						OFFSET	-22.5	-16.5	-42.2
						CHANNELS 3  Xrotation Yrotation Zrotation
						End Site
						{
							OFFSET	1	0	0
						}
					}
				}
			}
		}
	}
	JOINT right_hip
	{
		OFFSET	82.8	-127.5	0.300001
		CHANNELS 3  Xrotation Yrotation Zrotation
		JOINT right_knee
		{
			OFFSET	28.2	-396.7	2.2
			CHANNELS 3  Xrotation Yrotation Zrotation
			JOINT right_ankle
			{
				OFFSET	11.7	-411.3	35.4
				CHANNELS 3  Xrotation Yrotation Zrotation
				JOINT right_toes
				{
					OFFSET	0	-60	-88.6
					CHANNELS 3  Xrotation Yrotation Zrotation
					JOINT right_foot_ee
					{
						OFFSET	22.5	-16.5	-42.2
						CHANNELS 3  Xrotation Yrotation Zrotation
						End Site
						{
							OFFSET	1	0	0
						}
					}
				}
			}
		}
	}
}
MOTION
Frames: 8
Frame Time: 0.02
2029.85 622.242 -459.929 43.4197 -74.0596 51.0207 -7.97033 -0.675281 -4.48595 -7.95922 -0.388759 -4.51973 -7.89971 1.18491 -4.37922 -7.92614 0.479165 -4.51106 -2.57592 2.41382 1.26388 -2.56834 3.38214 1.6567 -0.0 0.0 -0.0 10.9398 20.8318 18.8169 -3.17206 -26.1673 72.0863 0.954922 -25.3156 0.214467 -20.1705 -1.12902 2.30556 -1.16567 18.7044 0.554456 -0.0 0.0 -0.0 10.2647 12.8041 -20.3591 33.8068 11.7519 -47.0264 1.2607 31.9839 -0.361321 23.2194 -0.22572 2.93724 6.8474 -30.528 -61.2776 0.0 0.0 0.0 0.303263 -26.3037 -3.58339 -76.4246 -4.20845 10.0601 -3.6496 27.1236 0.567975 34.1267 -0.0 -0.0 -0.0 0.0 -0.0 10.8837 11.4716 -15.7911 -46.1388 0.902755 -6.83532 42.4483 -25.4573 5.4128 17.0174 -0.0 -0.0 0.0 0.0 0.0 
2042.89 627.656 -458.841 40.7008 -73.7648 47.8512 -7.7209 -0.690232 -4.29418 -7.71074 -0.415846 -4.32931 -7.65319 1.07574 -4.21431 -7.67775 0.397329 -4.33104 -3.28028 2.14836 1.92162 -3.26982 2.41935 2.31233 -0.0 0.0 -0.0 10.6096 20.8861 18.2758 -3.1288 -25.1833 72.0636 0.607053 -16.737 0.0893016 -20.2722 -1.13671 2.31606 -1.17667 19.7247 0.939153 -0.0 0.0 -0.0 10.2253 14.0833 -20.2302 35.2538 11.8108 -46.8538 1.33042 33.3853 -0.398977 24.4672 -0.203976 3.09515 7.08555 -30.9414 -64.6152 0.0 0.0 0.0 8.8001 -26.3523 -1.40314 -77.6721 -4.37773 10.1522 -2.76953 26.8035 0.429507 34.3491 -0.0 -0.0 -0.0 0.0 -0.0 7.64817 12.0167 -15.42 -41.8435 0.588196 -6.2544 42.0564 -22.248 5.27427 16.8895 -0.0 -0.0 0.0 0.0 0.0 
2058.58 632.55 -454.799 42.5248 -73.3804 49.5856 -7.69789 -0.620945 -4.2507 -7.68791 -0.349458 -4.28152 -7.63669 1.12093 -4.14717 -7.6604 0.452529 -4.27188 -3.76736 1.99348 1.99193 -3.75655 2.10671 2.36508 -0.0 0.0 -0.0 10.2785 20.7076 17.7801 -3.10386 -24.511 72.0803 0.35955 -10.0993 0.0317705 -20.5332 -1.15655 2.34297 -1.18905 19.94 0.960584 -0.0 0.0 -0.0 10.1206 15.3456 -19.9461 36.3075 12.1909 -46.3937 1.38113 34.377 -0.427246 25.1746 -0.190123 3.18446 7.11072 -30.9206 -65.0193 0.0 0.0 0.0 15.2123 -26.9944 1.5934 -77.6397 -4.3733 10.1499 -2.23425 26.4936 0.345524 34.1457 -0.0 -0.0 -0.0 0.0 -0.0 5.09669 12.1265 -15.9643 -39.2231 0.418084 -5.88923 41.6371 -20.2157 5.18237 16.7802 -0.0 -0.0 0.0 0.0 0.0 
2072.11 639.563 -453.464 39.743 -73.2126 46.7707 -7.55333 -0.565213 -4.27071 -7.54323 -0.292568 -4.29796 -7.49672 1.17004 -4.14623 -7.52035 0.50117 -4.27868 -3.69508 2.07537 1.78046 -3.68604 2.41554 2.15894 -0.0 0.0 -0.0 10.1321 20.6217 17.5622 -3.42633 -23.8354 72.075 0.180677 -5.11459 0.00806952 -20.6587 -1.16613 2.35588 -1.21556 21.5732 1.52489 -0.0 0.0 -0.0 10.075 16.6799 -19.7793 37.7887 12.1496 -45.4908 1.44296 35.555 -0.462679 25.9847 -0.172905 3.28651 7.15084 -30.7686 -65.72 0.0 0.0 0.0 20.6461 -27.1715 4.36763 -76.5726 -4.22844 10.0712 -2.06473 26.7246 0.319624 34.2619 -0.0 -0.0 -0.0 0.0 -0.0 3.58234 10.8469 -15.5956 -36.8157 0.276711 -5.54733 41.7098 -18.8058 5.15561 16.8084 -0.0 -0.0 0.0 0.0 0.0 
2086.59 640.293 -454.96 38.8877 -72.7163 45.264 -7.38747 -0.489243 -4.08463 -7.37822 -0.22856 -4.10743 -7.34008 1.1554 -3.94845 -7.36145 0.517863 -4.0811 -3.36968 1.83806 1.93144 -3.35958 1.85103 2.27677 -0.0 0.0 -0.0 9.77799 18.8772 17.281 -5.7226 -21.9472 71.0312 0.161609 -4.57724 0.00645876 -20.4353 -1.14909 2.33289 -1.18677 26.9994 4.05019 -0.0 0.0 -0.0 9.95042 18.3595 -19.4036 39.0932 12.9801 -45.1761 1.48505 36.3377 -0.48739 25.8745 -0.175333 3.27263 7.16275 -31.158 -65.7845 0.0 0.0 0.0 25.9313 -29.3898 8.1294 -70.0495 -3.37707 9.53298 -1.50077 27.4667 0.233076 33.9121 -0.0 -0.0 -0.0 0.0 -0.0 1.50353 8.86792 -14.7564 -34.0975 0.134561 -5.15469 41.8016 -19.6577 5.1834 16.7404 -0.0 -0.0 0.0 0.0 0.0 
2101.46 650.171 -456.269 33.3 -72.5593 38.6191 -7.10499 -0.568088 -3.67867 -7.09752 -0.333018 -3.70731 -7.05807 0.905099 -3.61065 -7.07611 0.323918 -3.70811 -3.38413 1.76264 3.34173 -3.35385 0.621208 3.7266 -0.0 0.0 -0.0 9.71311 17.8267 17.3343 -7.75782 -20.2406 69.8881 0.165135 -4.67668 0.00674325 -20.4911 -1.15334 2.33864 -1.04311 28.9009 5.6365 -0.0 0.0 -0.0 10.6208 19.1547 -20.8562 40.7521 12.6049 -44.2874 1.54231 37.3778 -0.521738 25.8466 -0.175944 3.26912 7.20424 -30.2552 -66.7958 0.0 0.0 0.0 26.6631 -29.5525 8.7307 -64.5289 -2.70835 9.00478 0.504436 28.0032 -0.0782696 34.9833 -0.0 -0.0 -0.0 0.0 -0.0 0.308814 8.64618 -13.3664 -30.7501 -0.0146038 -4.66279 41.1901 -18.5257 5.10343 16.8693 -0.0 -0.0 0.0 0.0 0.0 
2122.79 654.931 -452.265 33.144 -72.2383 37.6518 -7.18591 -0.577547 -3.34092 -7.17977 -0.36391 -3.37085 -7.14315 0.769902 -3.30194 -7.15828 0.239073 -3.38198 -4.03409 3.10989 4.67883 -3.97568 2.10143 5.30794 -0.0 0.0 -0.0 9.45662 16.7397 17.0597 -10.3187 -18.7478 68.2994 0.17137 -4.85243 0.00726104 -20.0592 -1.12062 2.29404 -0.647047 29.1891 7.88999 -0.0 0.0 -0.0 11.205 19.4682 -22.1563 41.4266 13.4094 -43.5317 1.7479 40.8843 -0.651546 26.1046 -0.170236 3.30158 7.25463 -29.8505 -67.835 0.0 0.0 0.0 28.4625 -26.9537 7.205 -57.5801 -1.94443 8.25347 6.83549 28.1707 -1.04529 36.8644 -0.0 -0.0 -0.0 0.0 -0.0 -1.3783 3.78674 -11.5442 -31.354 0.0101732 -4.75215 41.3546 -19.7645 5.14619 17.2329 -0.0 -0.0 0.0 0.0 0.0 
2135.43 659.976 -450.474 31.415 -72.7465 35.3358 -7.04589 -0.549007 -2.9367 -7.04117 -0.361109 -2.96565 -7.0107 0.631776 -2.92003 -7.02256 0.162899 -2.98309 -4.13352 3.11457 5.06931 -4.06458 1.8205 5.70953 -0.0 0.0 -0.0 9.20069 16.6288 16.6441 -11.7638 -17.6607 67.2399 0.186043 -5.26565 0.00855502 -19.9844 -1.11498 2.28629 -0.570794 28.9926 8.22705 -0.0 0.0 -0.0 11.5538 19.0467 -22.9779 42.4836 13.8499 -43.2409 1.88716 43.0669 -0.744704 26.1633 -0.168915 3.30897 7.28731 -29.9888 -68.4058 0.0 0.0 0.0 29.9884 -26.5457 6.79987 -51.3854 -1.34495 7.51099 10.4815 28.13 -1.58543 37.3759 -0.0 -0.0 -0.0 0.0 -0.0 -2.11937 3.18023 -11.2159 -28.9394 -0.0832256 -4.39339 40.2591 -21.8797 5.09977 17.1935 -0.0 -0.0 0.0 0.0 0.0 
